<?xml version="1.0" encoding="UTF-8"?>
<svg version="1.1" xmlns="http://www.w3.org/2000/svg" width="170" height="195">
<path d="M0 0 C55.77 0 111.54 0 169 0 C169 60.39 169 120.78 169 183 C113.23 183 57.46 183 0 183 C0 122.61 0 62.22 0 0 Z" fill="none"/>
<path d="M0 0 C1.46771095 -0.00717545 1.46771095 -0.00717545 2.96507263 -0.01449585 C5.02678034 -0.01788815 7.08854233 -0.00873277 9.15014648 0.01220703 C12.30248969 0.0390106 15.45128176 0.01242122 18.60351562 -0.01953125 C20.61068492 -0.0162276 22.61785202 -0.00982229 24.625 0 C25.56469131 -0.01012115 26.50438263 -0.02024231 27.47254944 -0.03067017 C32.03956352 0.05101461 34.11743692 0.19349126 37.86938477 3.00195312 C39.74609375 5.6640625 39.74609375 5.6640625 39.89453125 8.921875 C38.42539974 13.70904502 36.13597098 17.39495517 33.37109375 21.5390625 C32.83814697 22.35753662 32.3052002 23.17601074 31.75610352 24.01928711 C30.64722614 25.72113653 29.53364374 27.41992897 28.41552734 29.11572266 C26.78822234 31.59975449 25.19364658 34.10163119 23.609375 36.61328125 C22.63423247 38.15111643 21.65897698 39.68887998 20.68359375 41.2265625 C20.23129395 41.94634277 19.77899414 42.66612305 19.31298828 43.40771484 C17.31321558 46.52511894 15.86619291 48.58399639 12.74609375 50.6640625 C9.85169292 51.03513953 8.16699765 50.8511309 5.49609375 49.6640625 C3.36874296 47.23280445 2.91564206 45.13069959 2.58105469 41.95068359 C2.90389396 37.47773586 5.54419202 34.1057421 7.99609375 30.4765625 C8.50011719 29.69603516 9.00414063 28.91550781 9.5234375 28.11132812 C10.46567415 26.65345804 11.41676535 25.20124068 12.37988281 23.75708008 C13.89952599 21.42900629 15.32799714 19.05508175 16.74609375 16.6640625 C15.91883789 16.67977295 15.09158203 16.6954834 14.23925781 16.71166992 C10.49160598 16.77402554 6.7440633 16.81305596 2.99609375 16.8515625 C1.04316406 16.88926758 1.04316406 16.88926758 -0.94921875 16.92773438 C-2.19960938 16.93740234 -3.45 16.94707031 -4.73828125 16.95703125 C-5.89038086 16.9727417 -7.04248047 16.98845215 -8.22949219 17.00463867 C-11.55093215 16.63061472 -12.88347862 15.96866448 -15.25390625 13.6640625 C-16.07421875 11.796875 -16.07421875 11.796875 -16.37890625 9.7890625 C-16.50523438 9.13164063 -16.6315625 8.47421875 -16.76171875 7.796875 C-16.07697024 4.92093124 -14.46773563 3.5556928 -12.20483398 1.74661255 C-8.38547215 -0.37271267 -4.26897131 -0.04607917 0 0 Z " fill="#F0187D" transform="translate(29.25390625,94.3359375)"/>
<path d="M0 0 C4.28918034 0.43618783 5.87139986 1.13221802 8.6875 4.375 C9.18738774 9.02030804 8.38283221 11.59712458 5.87890625 15.484375 C5.29689453 16.40347656 4.71488281 17.32257812 4.11523438 18.26953125 C3.49970703 19.21183594 2.88417969 20.15414062 2.25 21.125 C1.0427036 23.01545569 -0.16434044 24.90607258 -1.37109375 26.796875 C-1.91048584 27.62799805 -2.44987793 28.45912109 -3.00561523 29.31542969 C-4.33036514 31.32605644 -4.33036514 31.32605644 -5.3125 33.375 C-4.49048096 33.34881592 -3.66846191 33.32263184 -2.8215332 33.2956543 C0.91044938 33.1915856 4.6421266 33.12663872 8.375 33.0625 C9.66857422 33.02060547 10.96214844 32.97871094 12.29492188 32.93554688 C14.16567383 32.91137695 14.16567383 32.91137695 16.07421875 32.88671875 C17.22108154 32.86053467 18.36794434 32.83435059 19.54956055 32.80737305 C23.67162514 33.55301999 25.14777834 35.11057398 27.6875 38.375 C27.83049191 42.45026939 27.48049054 44.47470412 24.76782227 47.55444336 C20.30573114 50.19166406 16.37437016 49.9675269 11.27734375 49.94140625 C9.7706588 49.95070412 9.7706588 49.95070412 8.23353577 49.96018982 C6.11460335 49.96728047 3.99561514 49.9641272 1.87670898 49.95141602 C-1.36773796 49.93753108 -4.60931131 49.97165637 -7.85351562 50.00976562 C-9.91406321 50.01071666 -11.9746144 50.00885885 -14.03515625 50.00390625 C-15.00501968 50.01716446 -15.97488312 50.03042267 -16.97413635 50.04408264 C-23.67631607 49.95121601 -23.67631607 49.95121601 -26.9206543 47.01269531 C-28.67908146 43.68028924 -28.95621179 42.10393044 -28.3125 38.375 C-26.98412641 35.63085983 -25.30199693 33.18595409 -23.5625 30.6875 C-22.55714494 29.19368237 -21.55329749 27.69884926 -20.55078125 26.203125 C-20.02307129 25.42259766 -19.49536133 24.64207031 -18.95166016 23.83789062 C-15.58580637 18.78058753 -12.40830546 13.60159015 -9.19824219 8.44458008 C-8.7190332 7.68040771 -8.23982422 6.91623535 -7.74609375 6.12890625 C-7.32384521 5.45158447 -6.90159668 4.7742627 -6.46655273 4.07641602 C-4.41855257 1.05705635 -3.7443046 0.42388354 0 0 Z " fill="#685BA6" transform="translate(128.3125,34.625)"/>
<path d="M0 0 C0.88456879 -0.00945648 1.76913757 -0.01891296 2.68051147 -0.02865601 C3.63366241 -0.02258331 4.58681335 -0.01651062 5.56884766 -0.01025391 C6.55156647 -0.01312408 7.53428528 -0.01599426 8.54678345 -0.01895142 C10.62640966 -0.02099352 12.70605502 -0.01545347 14.78564453 -0.00292969 C17.96381845 0.01308738 21.14071399 -0.00275603 24.31884766 -0.02197266 C26.33968379 -0.01998958 28.36051913 -0.01614457 30.38134766 -0.01025391 C31.33045013 -0.0163266 32.27955261 -0.02239929 33.25741577 -0.02865601 C38.15893088 0.02337283 41.68517755 0.10396807 45.60791016 3.38818359 C47.60791016 6.38818359 47.60791016 6.38818359 47.48291016 9.32568359 C46.45734579 12.91515888 45.53478705 14.10767387 42.60791016 16.38818359 C39.58349609 16.84228516 39.58349609 16.84228516 36.09228516 16.77880859 C34.84189453 16.76591797 33.59150391 16.75302734 32.30322266 16.73974609 C30.35029297 16.68947266 30.35029297 16.68947266 28.35791016 16.63818359 C27.04048828 16.62013672 25.72306641 16.60208984 24.36572266 16.58349609 C21.11238708 16.5363463 17.86051391 16.47054403 14.60791016 16.38818359 C15.08417847 17.16681763 15.08417847 17.16681763 15.57006836 17.96118164 C17.0203988 20.33254995 18.47040718 22.70411504 19.92041016 25.07568359 C20.41992188 25.89230469 20.91943359 26.70892578 21.43408203 27.55029297 C22.40146284 29.13269733 23.36647138 30.71655491 24.32885742 32.30200195 C25.34937605 33.96650504 26.40291278 35.61075065 27.46728516 37.24755859 C29.23801446 40.57070811 28.57511041 42.84178267 27.60791016 46.38818359 C25.98291016 48.88818359 25.98291016 48.88818359 23.60791016 50.38818359 C20.29541016 50.76318359 20.29541016 50.76318359 16.60791016 49.38818359 C14.98901367 47.49707031 14.98901367 47.49707031 13.36181641 45.06787109 C12.7550708 44.16568848 12.1483252 43.26350586 11.52319336 42.33398438 C8.25008181 37.29977609 5.03010975 32.23658855 1.85791016 27.13818359 C1.19919922 26.08888672 0.54048828 25.03958984 -0.13818359 23.95849609 C-0.77369141 22.94013672 -1.40919922 21.92177734 -2.06396484 20.87255859 C-2.63211914 19.9621582 -3.20027344 19.05175781 -3.78564453 18.11376953 C-8.42555096 10.24144197 -8.42555096 10.24144197 -8.26708984 6.20068359 C-6.80756367 1.50934948 -4.88101331 0.01498038 0 0 Z " fill="#F0187D" transform="translate(108.39208984375,94.61181640625)"/>
<path d="M0 0 C3.71034848 3.23598101 6.27474636 6.69955771 8.8125 10.89453125 C9.83730469 12.57579102 9.83730469 12.57579102 10.8828125 14.29101562 C11.58876087 15.46471193 12.29448872 16.63854091 13 17.8125 C13.7050643 18.97501288 14.41078875 20.13712564 15.1171875 21.29882812 C16.47197948 23.52912247 17.82249711 25.76202028 19.16821289 27.99780273 C20.73231381 30.56127721 22.35019731 33.0748792 23.99609375 35.5859375 C26 39 26 39 26.0625 42.8125 C24.86734835 46.39795494 24.16400069 47.11173805 21 49 C18.79956055 49.38768005 18.79956055 49.38768005 16.38671875 49.40405273 C15.0251062 49.42307899 15.0251062 49.42307899 13.63598633 49.44248962 C12.1764856 49.43808617 12.1764856 49.43808617 10.6875 49.43359375 C9.68162842 49.4388356 8.67575684 49.44407745 7.6394043 49.44947815 C5.51449506 49.45589648 3.38955029 49.45456382 1.26464844 49.44604492 C-1.98827243 49.4375307 -5.23943992 49.46630675 -8.4921875 49.49804688 C-10.55729114 49.49965886 -12.62239789 49.49908141 -14.6875 49.49609375 C-15.66050049 49.50732773 -16.63350098 49.51856171 -17.63598633 49.53013611 C-24.34487678 49.46080386 -24.34487678 49.46080386 -27.58203125 47.18383789 C-29.62110846 44.04342025 -30 41.732412 -30 38 C-28.42089844 35.30786133 -28.42089844 35.30786133 -26 33 C-22.88378906 32.43237305 -22.88378906 32.43237305 -19.265625 32.51171875 C-17.32236328 32.53588867 -17.32236328 32.53588867 -15.33984375 32.56054688 C-13.97654572 32.60232061 -12.61326448 32.6446453 -11.25 32.6875 C-9.87113376 32.7125909 -8.49222403 32.73540271 -7.11328125 32.75585938 C-3.74108644 32.81481383 -0.37109259 32.89706829 3 33 C2.01805485 31.35700681 1.03586125 29.71416166 0.05249023 28.07202148 C-0.77635021 26.68703056 -1.60365439 25.30111914 -2.42944336 23.91430664 C-4.55531311 20.35577639 -6.73781566 16.87077659 -9.0625 13.4375 C-11.10518659 9.81337864 -11.83202924 8.06769848 -11 4 C-8.0623219 -0.46527072 -5.12830352 -0.80973213 0 0 Z " fill="#69C4AF" transform="translate(43,35)"/>
<path d="M0 0 C5.74328252 3.29408105 7.96888966 9.04759316 10.8125 14.75 C11.56563477 16.22533203 11.56563477 16.22533203 12.33398438 17.73046875 C13.56650525 20.14855732 14.78801254 22.57157275 16 25 C18.05512434 22.36018981 19.79076262 19.72220447 21.375 16.77734375 C22.01695313 15.59881836 22.01695313 15.59881836 22.671875 14.39648438 C23.55892544 12.75413658 24.44433697 11.11090255 25.328125 9.46679688 C25.75609375 8.68240234 26.1840625 7.89800781 26.625 7.08984375 C27.00914063 6.37691162 27.39328125 5.66397949 27.7890625 4.92944336 C29.03824421 2.9390637 30.17497677 1.48169358 32 0 C35.89504791 -0.49573337 38.09493717 -0.58016848 41.4375 1.5625 C43.5785237 4.90249698 43.28888962 7.07383292 43 11 C41.82592773 13.9909668 41.82592773 13.9909668 40.18359375 16.94921875 C39.58353516 18.04556641 38.98347656 19.14191406 38.36523438 20.27148438 C37.72908203 21.39876953 37.09292969 22.52605469 36.4375 23.6875 C35.82841797 24.79544922 35.21933594 25.90339844 34.59179688 27.04492188 C32.75140135 30.37710891 30.88002775 33.69003692 29 37 C28.36594238 38.1338916 27.73188477 39.2677832 27.07861328 40.43603516 C26.15991455 42.05517822 26.15991455 42.05517822 25.22265625 43.70703125 C24.67488525 44.67745361 24.12711426 45.64787598 23.56274414 46.64770508 C22 49 22 49 19 51 C15.625 51.0625 15.625 51.0625 12 50 C7.90080057 45.59336061 5.55286024 40.30019326 2.95288086 34.90307617 C1.20826257 31.30618192 -0.65183699 27.82187297 -2.671875 24.37109375 C-3.12925049 23.58323486 -3.58662598 22.79537598 -4.05786133 21.98364258 C-4.95772163 20.44523338 -5.87106951 18.91461124 -6.79956055 17.39331055 C-9.75723544 12.30326504 -10.57748702 8.89036755 -10 3 C-7.82815916 -1.08817098 -4.1986431 -0.50673279 0 0 Z " fill="#FDB817" transform="translate(68,20)"/>
<path d="M0 0 C5.46113243 5.29338434 8.56437362 12.27139914 12.0625 18.9375 C13.28182329 21.23866756 14.50185569 23.53945956 15.72265625 25.83984375 C16.28927979 26.91435791 16.85590332 27.98887207 17.43969727 29.09594727 C18.71156957 31.46317009 20.02983875 33.77906367 21.40625 36.0859375 C23.37749873 39.69023052 23.53498445 41.94940348 23 46 C22 48.4375 22 48.4375 20 50 C17.25819003 50.50266516 14.72550267 50.60994112 12 50 C9.25673735 47.69664626 7.76601978 45.02711206 6.08203125 41.89453125 C5.55029297 40.91162109 5.01855469 39.92871094 4.47070312 38.91601562 C3.92349609 37.89185547 3.37628906 36.86769531 2.8125 35.8125 C2.25369141 34.77673828 1.69488281 33.74097656 1.11914062 32.67382812 C-0.25867075 30.1184002 -1.63150276 27.56042442 -3 25 C-5.05512434 27.63981019 -6.79076262 30.27779553 -8.375 33.22265625 C-8.80296875 34.00833984 -9.2309375 34.79402344 -9.671875 35.60351562 C-10.55892544 37.24586342 -11.44433697 38.88909745 -12.328125 40.53320312 C-12.75609375 41.31759766 -13.1840625 42.10199219 -13.625 42.91015625 C-14.00914063 43.62308838 -14.39328125 44.33602051 -14.7890625 45.07055664 C-16.02045887 47.03259808 -17.24890197 48.48811032 -19 50 C-21.72550267 50.60994112 -24.25819003 50.50266516 -27 50 C-29 48.4375 -29 48.4375 -30 46 C-30.4270012 40.54692418 -29.55150867 37.30812693 -26.9296875 32.54296875 C-26.61097687 31.95510086 -26.29226624 31.36723297 -25.96389771 30.7615509 C-24.94777437 28.89575182 -23.91171384 27.04192067 -22.875 25.1875 C-22.20182917 23.95578545 -21.52994333 22.7233677 -20.859375 21.49023438 C-8.56536325 -1.01622954 -8.56536325 -1.01622954 0 0 Z " fill="#65C2AD" transform="translate(88,109)"/>
<path d="M0 0 C4.12591452 0.65146019 5.82708827 1.41263195 8.5625 4.5625 C9.06238774 9.20780804 8.25783221 11.78462458 5.75390625 15.671875 C5.17189453 16.59097656 4.58988281 17.51007812 3.99023438 18.45703125 C3.37470703 19.39933594 2.75917969 20.34164062 2.125 21.3125 C0.9177036 23.20295569 -0.28934044 25.09357258 -1.49609375 26.984375 C-2.03548584 27.81549805 -2.57487793 28.64662109 -3.13061523 29.50292969 C-4.45536514 31.51355644 -4.45536514 31.51355644 -5.4375 33.5625 C3.8025 33.5625 13.0425 33.5625 22.5625 33.5625 C22.5625 33.8925 22.5625 34.2225 22.5625 34.5625 C22.00761902 34.57280746 21.45273804 34.58311493 20.88104248 34.59373474 C15.10596198 34.70191316 9.33103393 34.81650195 3.55615234 34.93481445 C1.40091135 34.97812691 -0.75436314 35.01980463 -2.90966797 35.05981445 C-6.00758967 35.11760618 -9.10534334 35.18127523 -12.203125 35.24609375 C-13.16679993 35.26280624 -14.13047485 35.27951874 -15.12335205 35.29673767 C-16.47429962 35.3266555 -16.47429962 35.3266555 -17.85253906 35.35717773 C-19.03834564 35.38049416 -19.03834564 35.38049416 -20.24810791 35.40428162 C-22.41777459 35.56107453 -24.34886533 35.96865681 -26.4375 36.5625 C-22.22555372 29.13227082 -17.79605121 21.8543878 -13.25 14.625 C-12.73920898 13.80862061 -12.22841797 12.99224121 -11.70214844 12.15112305 C-4.48757423 0.73433033 -4.48757423 0.73433033 0 0 Z " fill="#69C0AF" transform="translate(128.4375,34.4375)"/>
<path d="M0 0 C1.2857341 0.01061211 1.2857341 0.01061211 2.59744263 0.0214386 C5.31847721 0.04928912 8.03740657 0.11200669 10.7578125 0.17578125 C12.60934515 0.20087635 14.46091026 0.2236874 16.3125 0.24414062 C20.83674096 0.29908474 25.35942059 0.38528963 29.8828125 0.48828125 C29.5528125 1.14828125 29.2228125 1.80828125 28.8828125 2.48828125 C28.2228125 2.48828125 27.5628125 2.48828125 26.8828125 2.48828125 C26.61726563 3.20371094 26.35171875 3.91914062 26.078125 4.65625 C24.85367151 7.55732444 23.40298187 10.11843989 21.7578125 12.80078125 C21.21898437 13.68378906 20.68015625 14.56679687 20.125 15.4765625 C19.71507812 16.14042969 19.30515625 16.80429688 18.8828125 17.48828125 C14.82545031 17.41928627 10.7689856 17.33126465 6.71240234 17.22583008 C5.33328583 17.19263932 3.95403539 17.16458908 2.57470703 17.1418457 C0.58858944 17.10819483 -1.39715309 17.05433396 -3.3828125 17 C-4.57680664 16.97381592 -5.77080078 16.94763184 -7.00097656 16.9206543 C-10.33205486 16.45846849 -11.73191019 15.80676509 -14.1171875 13.48828125 C-14.9375 11.62109375 -14.9375 11.62109375 -15.2421875 9.61328125 C-15.36851563 8.95585938 -15.49484375 8.2984375 -15.625 7.62109375 C-14.9356296 4.72573808 -13.27196202 3.37904886 -10.99868774 1.55969238 C-7.50139282 -0.43182515 -3.92768475 -0.12329196 0 0 Z " fill="#FDB91F" transform="translate(28.1171875,94.51171875)"/>
<path d="M0 0 C5.32020022 -0.07429915 10.64009669 -0.12867247 15.96069336 -0.16479492 C17.76966617 -0.17985755 19.5786026 -0.20031177 21.38745117 -0.22631836 C23.99146515 -0.2628132 26.5949952 -0.27975157 29.19921875 -0.29296875 C30.40731453 -0.31619453 30.40731453 -0.31619453 31.63981628 -0.33988953 C36.25715004 -0.34126543 39.26021386 -0.00846192 43 3 C45 6 45 6 44.875 8.9375 C43.84729831 12.53445591 42.93177907 13.71192975 40 16 C36.88378906 16.54589844 36.88378906 16.54589844 33.265625 16.609375 C31.97011719 16.64160156 30.67460937 16.67382812 29.33984375 16.70703125 C27.97656698 16.72177469 26.61328555 16.73609222 25.25 16.75 C23.87105624 16.77816814 22.49214725 16.80809678 21.11328125 16.83984375 C17.74212784 16.91056725 14.3716672 16.96325504 11 17 C9.66121428 14.8782637 8.32884524 12.75294812 7 10.625 C6.6184375 10.02171875 6.236875 9.4184375 5.84375 8.796875 C3 4.2265625 3 4.2265625 3 2 C2.01 1.67 1.02 1.34 0 1 C0 0.67 0 0.34 0 0 Z " fill="#FDB91E" transform="translate(111,95)"/>
<path d="M0 0 C5.62374073 3.28672265 7.98130906 8.78665506 10.875 14.375 C11.38546875 15.30828125 11.8959375 16.2415625 12.421875 17.203125 C16.00773457 24.04533273 16.00773457 24.04533273 15.97265625 28.375 C15.01352402 30.96350143 13.97446704 33.25356575 12.5625 35.625 C10.94251627 38.38139022 9.41602865 41.13343286 8 44 C-0.7890625 27.88671875 -0.7890625 27.88671875 -2.38208008 24.95263672 C-3.47881775 22.95113598 -4.59118552 20.95813531 -5.7175293 18.97314453 C-6.26062744 18.00876465 -6.80372559 17.04438477 -7.36328125 16.05078125 C-7.85610596 15.18751221 -8.34893066 14.32424316 -8.85668945 13.43481445 C-10.64123602 9.63441237 -10.6638004 7.13031358 -10 3 C-7.82815916 -1.08817098 -4.1986431 -0.50673279 0 0 Z " fill="#F0187C" transform="translate(68,20)"/>
<path d="M0 0 C3.75545628 3.27071416 6.33994595 6.79854076 8.91796875 11.03515625 C9.4329467 11.87595985 9.4329467 11.87595985 9.95832825 12.73374939 C11.04135211 14.50605582 12.11433889 16.28420849 13.1875 18.0625 C13.91800926 19.25883656 14.64912412 20.45480354 15.38085938 21.65039062 C21.10792015 31.04351002 21.10792015 31.04351002 23 35 C16.61273907 35.76834206 10.09085552 36.45674338 4 34 C-1.03493243 29.45571907 -4.01094886 23.19457848 -6.93530273 17.16577148 C-8.04161676 14.83146782 -8.04161676 14.83146782 -9.78515625 12.08203125 C-11.4739197 9.18778392 -11.48995324 7.28968607 -11 4 C-8.0623219 -0.46527072 -5.12830352 -0.80973213 0 0 Z " fill="#675CA6" transform="translate(43,35)"/>
<path d="M0 0 C0.66 0 1.32 0 2 0 C2.83790789 1.78953185 3.67019396 3.58169695 4.5 5.375 C4.9640625 6.37273437 5.428125 7.37046875 5.90625 8.3984375 C7 11 7 11 7 13 C7.66 13 8.32 13 9 13 C8.56965336 19.19904084 5.61374224 23.89589355 2.625 29.1875 C2.13 30.08919922 1.635 30.99089844 1.125 31.91992188 C-3.10543336 39.51547267 -3.10543336 39.51547267 -6 42 C-8.72550267 42.60994112 -11.25819003 42.50266516 -14 42 C-16 40.4375 -16 40.4375 -17 38 C-17.45307111 32.43369785 -16.46719206 29.15689864 -13.7890625 24.296875 C-13.46086517 23.6924054 -13.13266785 23.08793579 -12.79452515 22.46514893 C-11.75154662 20.55230496 -10.68863642 18.65141901 -9.625 16.75 C-8.9179591 15.45905089 -8.2122171 14.16738949 -7.5078125 12.875 C-2.56712496 3.85068744 -2.56712496 3.85068744 0 0 Z " fill="#675BA6" transform="translate(75,117)"/>
</svg>
